<svg xmlns="http://www.w3.org/2000/svg" viewBox="0 0 100 100" fill="none">
  <!-- Shopping Cart Base -->
  <rect x="20" y="60" width="60" height="8" rx="4" fill="currentColor" opacity="0.8"/>
  
  <!-- Cart Basket -->
  <path d="M15 40 L15 25 Q15 15 25 15 L75 15 Q85 15 85 25 L85 40 L80 50 L20 50 Z" 
        fill="none" stroke="currentColor" strokeWidth="3" strokeLinecap="round"/>
  
  <!-- Cart Grid Pattern -->
  <line x1="25" y1="25" x2="75" y2="25" stroke="currentColor" strokeWidth="1" opacity="0.6"/>
  <line x1="25" y1="35" x2="75" y2="35" stroke="currentColor" strokeWidth="1" opacity="0.6"/>
  <line x1="35" y1="20" x2="35" y2="40" stroke="currentColor" strokeWidth="1" opacity="0.6"/>
  <line x1="50" y1="20" x2="50" y2="40" stroke="currentColor" strokeWidth="1" opacity="0.6"/>
  <line x1="65" y1="20" x2="65" y2="40" stroke="currentColor" strokeWidth="1" opacity="0.6"/>
  
  <!-- Grocery Items -->
  <!-- Carrot -->
  <ellipse cx="30" cy="30" rx="3" ry="6" fill="#ff8c00" opacity="0.9"/>
  <path d="M30 24 Q32 20 34 22" stroke="#228b22" strokeWidth="2" fill="none"/>
  
  <!-- Tomato -->
  <circle cx="45" cy="30" r="4" fill="#ff4444" opacity="0.9"/>
  <path d="M45 26 Q46 24 47 26" stroke="#228b22" strokeWidth="1.5" fill="none"/>
  
  <!-- Bottle -->
  <rect x="55" y="25" width="4" height="8" rx="2" fill="#ffd700" opacity="0.9"/>
  
  <!-- Bread -->
  <ellipse cx="65" cy="30" rx="5" ry="3" fill="#8b4513" opacity="0.9"/>
</svg>

